<?xml version="1.0" encoding="utf-8"?>
<svg width="732" height="626" viewBox="0 0 732 626" xmlns="http://www.w3.org/2000/svg">
<rect id="frame" x="0" y="0" width="732" height="626" fill="#f7f7f7" stroke="none" stroke-width="0"/>

<!-- Association POSSEDER -->
<g class="page_0_NNeaDJHz diagram_page" visibility="visible">
	<line x1="87" y1="313" x2="87" y2="161" stroke="#8073ac" stroke-width="2"/>
	<text x="92" y="203" fill="#b35806" font-family="Verdana" font-size="12">0,N</text>
	<line x1="269" y1="60" x2="87" y2="161" stroke="#8073ac" stroke-width="2"/>
	<text x="194" y="83.51" fill="#b35806" font-family="Verdana" font-size="12">1,1</text>
	<g>
		<path d="M114 136 a14 14 90 0 1 14 14 V161 h-82 V150 a14 14 90 0 1 14 -14" fill="#b2abd2" stroke="#b2abd2" stroke-width="0"/>
		<path d="M128 161 v11 a14 14 90 0 1 -14 14 H60 a14 14 90 0 1 -14 -14 V161 H82" fill="#d8daeb" stroke="#d8daeb" stroke-width="0"/>
		<rect x="46" y="136" width="82" height="50" fill="none" rx="14" stroke="#8073ac" stroke-width="2"/>
		<line x1="46" y1="161" x2="128" y2="161" stroke="#8073ac" stroke-width="1"/>
		<text x="54" y="153.75" fill="#000" font-family="Verdana" font-size="12">POSSEDER</text>
	</g>
</g>

<!-- Association LIER -->
<g class="page_0_NNeaDJHz diagram_page" visibility="visible">
	<line x1="269" y1="60" x2="269" y2="161" stroke="#8073ac" stroke-width="2"/>
	<text x="274" y="128" fill="#b35806" font-family="Verdana" font-size="12">0,1</text>
	<line x1="416" y1="313" x2="269" y2="161" stroke="#8073ac" stroke-width="2"/>
	<text x="350" y="282.77" fill="#b35806" font-family="Verdana" font-size="12">0,N</text>
	<g>
		<path d="M277 136 a14 14 90 0 1 14 14 V161 h-44 V150 a14 14 90 0 1 14 -14" fill="#b2abd2" stroke="#b2abd2" stroke-width="0"/>
		<path d="M291 161 v11 a14 14 90 0 1 -14 14 H261 a14 14 90 0 1 -14 -14 V161 H44" fill="#d8daeb" stroke="#d8daeb" stroke-width="0"/>
		<rect x="247" y="136" width="44" height="50" fill="none" rx="14" stroke="#8073ac" stroke-width="2"/>
		<line x1="247" y1="161" x2="291" y2="161" stroke="#8073ac" stroke-width="1"/>
		<text x="255" y="153.75" fill="#000" font-family="Verdana" font-size="12">LIER</text>
	</g>
</g>

<!-- Association CARACTERISER -->
<g class="page_0_NNeaDJHz diagram_page" visibility="visible">
	<line x1="416" y1="313" x2="416" y2="161" stroke="#8073ac" stroke-width="2"/>
	<text x="421" y="246" fill="#b35806" font-family="Verdana" font-size="12">0,N</text>
	<line x1="416" y1="60" x2="416" y2="161" stroke="#8073ac" stroke-width="2"/>
	<text x="421" y="119" fill="#b35806" font-family="Verdana" font-size="12">1,1</text>
	<g>
		<path d="M457 136 a14 14 90 0 1 14 14 V161 h-110 V150 a14 14 90 0 1 14 -14" fill="#b2abd2" stroke="#b2abd2" stroke-width="0"/>
		<path d="M471 161 v11 a14 14 90 0 1 -14 14 H375 a14 14 90 0 1 -14 -14 V161 H110" fill="#d8daeb" stroke="#d8daeb" stroke-width="0"/>
		<rect x="361" y="136" width="110" height="50" fill="none" rx="14" stroke="#8073ac" stroke-width="2"/>
		<line x1="361" y1="161" x2="471" y2="161" stroke="#8073ac" stroke-width="1"/>
		<text x="369" y="153.75" fill="#000" font-family="Verdana" font-size="12">CARACTERISER</text>
	</g>
</g>

<!-- Association METTRE EN FAVORIS -->
<g class="page_0_NNeaDJHz diagram_page" visibility="visible">
	<line x1="87" y1="313" x2="269" y2="313" stroke="#8073ac" stroke-width="2"/>
	<text x="170" y="330" fill="#b35806" font-family="Verdana" font-size="12">0,N</text>
	<line x1="416" y1="313" x2="269" y2="313" stroke="#8073ac" stroke-width="2"/>
	<text x="350" y="330" fill="#b35806" font-family="Verdana" font-size="12">0,N</text>
	<g>
		<path d="M327 288 a14 14 90 0 1 14 14 V313 h-144 V302 a14 14 90 0 1 14 -14" fill="#b2abd2" stroke="#b2abd2" stroke-width="0"/>
		<path d="M341 313 v11 a14 14 90 0 1 -14 14 H211 a14 14 90 0 1 -14 -14 V313 H144" fill="#d8daeb" stroke="#d8daeb" stroke-width="0"/>
		<rect x="197" y="288" width="144" height="50" fill="none" rx="14" stroke="#8073ac" stroke-width="2"/>
		<line x1="197" y1="313" x2="341" y2="313" stroke="#8073ac" stroke-width="1"/>
		<text x="205" y="305.75" fill="#000" font-family="Verdana" font-size="12">METTRE EN FAVORIS</text>
	</g>
</g>

<!-- Association CATEGORISER -->
<g class="page_0_NNeaDJHz diagram_page" visibility="visible">
	<line x1="416" y1="313" x2="539" y2="313" stroke="#8073ac" stroke-width="2"/>
	<text x="460" y="330" fill="#b35806" font-family="Verdana" font-size="12">1,N</text>
	<line x1="673" y1="313" x2="539" y2="313" stroke="#8073ac" stroke-width="2"/>
	<text x="596" y="330" fill="#b35806" font-family="Verdana" font-size="12">0,N</text>
	<g>
		<path d="M577 288 a14 14 90 0 1 14 14 V313 h-104 V302 a14 14 90 0 1 14 -14" fill="#b2abd2" stroke="#b2abd2" stroke-width="0"/>
		<path d="M591 313 v11 a14 14 90 0 1 -14 14 H501 a14 14 90 0 1 -14 -14 V313 H104" fill="#d8daeb" stroke="#d8daeb" stroke-width="0"/>
		<rect x="487" y="288" width="104" height="50" fill="none" rx="14" stroke="#8073ac" stroke-width="2"/>
		<line x1="487" y1="313" x2="591" y2="313" stroke="#8073ac" stroke-width="1"/>
		<text x="495" y="305.75" fill="#000" font-family="Verdana" font-size="12">CATEGORISER</text>
	</g>
</g>

<!-- Association APPARTENIR -->
<g class="page_0_NNeaDJHz diagram_page" visibility="visible">
	<line x1="87" y1="313" x2="87" y2="465" stroke="#8073ac" stroke-width="2"/>
	<text x="92" y="432" fill="#b35806" font-family="Verdana" font-size="12">1,1</text>
	<line x1="269" y1="465" x2="87" y2="465" stroke="#8073ac" stroke-width="2"/>
	<text x="210" y="482" fill="#b35806" font-family="Verdana" font-size="12">0,n</text>
	<g>
		<path d="M119 440 a14 14 90 0 1 14 14 V465 h-92 V454 a14 14 90 0 1 14 -14" fill="#b2abd2" stroke="#b2abd2" stroke-width="0"/>
		<path d="M133 465 v11 a14 14 90 0 1 -14 14 H55 a14 14 90 0 1 -14 -14 V465 H92" fill="#d8daeb" stroke="#d8daeb" stroke-width="0"/>
		<rect x="41" y="440" width="92" height="50" fill="none" rx="14" stroke="#8073ac" stroke-width="2"/>
		<line x1="41" y1="465" x2="133" y2="465" stroke="#8073ac" stroke-width="1"/>
		<text x="48" y="457.75" fill="#000" font-family="Verdana" font-size="12">APPARTENIR</text>
	</g>
</g>

<!-- Association APPELER -->
<g class="page_0_NNeaDJHz diagram_page" visibility="visible">
	<line x1="416" y1="313" x2="416" y2="465" stroke="#8073ac" stroke-width="2"/>
	<text x="421" y="389" fill="#b35806" font-family="Verdana" font-size="12">0,N</text>
	<line x1="416" y1="566" x2="416" y2="465" stroke="#8073ac" stroke-width="2"/>
	<text x="421" y="507" fill="#b35806" font-family="Verdana" font-size="12">1,1</text>
	<g>
		<path d="M436 440 a14 14 90 0 1 14 14 V465 h-68 V454 a14 14 90 0 1 14 -14" fill="#b2abd2" stroke="#b2abd2" stroke-width="0"/>
		<path d="M450 465 v11 a14 14 90 0 1 -14 14 H396 a14 14 90 0 1 -14 -14 V465 H68" fill="#d8daeb" stroke="#d8daeb" stroke-width="0"/>
		<rect x="382" y="440" width="68" height="50" fill="none" rx="14" stroke="#8073ac" stroke-width="2"/>
		<line x1="382" y1="465" x2="450" y2="465" stroke="#8073ac" stroke-width="1"/>
		<text x="389" y="457.75" fill="#000" font-family="Verdana" font-size="12">APPELER</text>
	</g>
</g>

<!-- Entity Tache -->
<g class="page_0_NNeaDJHz diagram_page" visibility="visible">
	<g>
		<rect x="220" y="9" width="98" height="25" fill="#fdb863" stroke="#fdb863" stroke-width="0" opacity="1"/>
		<rect x="220" y="34" width="98" height="77" fill="#fee0b6" stroke="#fee0b6" stroke-width="0" opacity="1"/>
		<rect x="220" y="9" width="98" height="102" fill="none" stroke="#e08214" stroke-width="2" opacity="1"/>
		<line x1="220" y1="34" x2="318" y2="34" stroke="#e08214" stroke-width="1"/>
	</g>
	<text x="251" y="26.75" fill="#000" font-family="Verdana" font-size="12">Tache</text>
	<text x="225" y="51.8" fill="#000" font-family="Verdana" font-size="12">code tache</text>
	<line x1="225" y1="54" x2="291" y2="54" stroke="#000" stroke-width="1"/>
	<text x="225" y="68.8" fill="#000" font-family="Verdana" font-size="12">label</text>
	<text x="225" y="85.8" fill="#000" font-family="Verdana" font-size="12">Date de début</text>
	<text x="225" y="102.8" fill="#000" font-family="Verdana" font-size="12">Date limite</text>
</g>

<!-- Entity Caracteristique -->
<g class="page_0_NNeaDJHz diagram_page" visibility="visible">
	<g>
		<rect x="350" y="18" width="132" height="25" fill="#fdb863" stroke="#fdb863" stroke-width="0" opacity="1"/>
		<rect x="350" y="43" width="132" height="59" fill="#fee0b6" stroke="#fee0b6" stroke-width="0" opacity="1"/>
		<rect x="350" y="18" width="132" height="84" fill="none" stroke="#e08214" stroke-width="2" opacity="1"/>
		<line x1="350" y1="43" x2="482" y2="43" stroke="#e08214" stroke-width="1"/>
	</g>
	<text x="370" y="35.75" fill="#000" font-family="Verdana" font-size="12">Caracteristique</text>
	<text x="355" y="60.8" fill="#000" font-family="Verdana" font-size="12">code caractéristique</text>
	<line x1="355" y1="63" x2="477" y2="63" stroke="#000" stroke-width="1"/>
	<text x="355" y="77.8" fill="#000" font-family="Verdana" font-size="12">label</text>
	<text x="355" y="94.8" fill="#000" font-family="Verdana" font-size="12">valeur</text>
</g>

<!-- Entity Utilisateur -->
<g class="page_0_NNeaDJHz diagram_page" visibility="visible">
	<g>
		<rect x="9" y="211" width="156" height="25" fill="#fdb863" stroke="#fdb863" stroke-width="0" opacity="1"/>
		<rect x="9" y="236" width="156" height="179" fill="#fee0b6" stroke="#fee0b6" stroke-width="0" opacity="1"/>
		<rect x="9" y="211" width="156" height="204" fill="none" stroke="#e08214" stroke-width="2" opacity="1"/>
		<line x1="9" y1="236" x2="165" y2="236" stroke="#e08214" stroke-width="1"/>
	</g>
	<text x="56" y="228.75" fill="#000" font-family="Verdana" font-size="12">Utilisateur</text>
	<text x="14" y="253.8" fill="#000" font-family="Verdana" font-size="12">code utilisateur</text>
	<line x1="14" y1="256" x2="108" y2="256" stroke="#000" stroke-width="1"/>
	<text x="14" y="270.8" fill="#000" font-family="Verdana" font-size="12">pseudo</text>
	<text x="14" y="287.8" fill="#000" font-family="Verdana" font-size="12">email</text>
	<text x="14" y="304.8" fill="#000" font-family="Verdana" font-size="12">mot de passe</text>
	<text x="14" y="321.8" fill="#000" font-family="Verdana" font-size="12">adresse</text>
	<text x="14" y="338.8" fill="#000" font-family="Verdana" font-size="12">code postal</text>
	<text x="14" y="355.8" fill="#000" font-family="Verdana" font-size="12">ville</text>
	<text x="14" y="372.8" fill="#000" font-family="Verdana" font-size="12">telephone</text>
	<text x="14" y="389.8" fill="#000" font-family="Verdana" font-size="12">notification par tache</text>
	<text x="14" y="406.8" fill="#000" font-family="Verdana" font-size="12">notification par semaine</text>
</g>

<!-- Entity Fiche -->
<g class="page_0_NNeaDJHz diagram_page" visibility="visible">
	<g>
		<rect x="377" y="254" width="78" height="25" fill="#fdb863" stroke="#fdb863" stroke-width="0" opacity="1"/>
		<rect x="377" y="279" width="78" height="93" fill="#fee0b6" stroke="#fee0b6" stroke-width="0" opacity="1"/>
		<rect x="377" y="254" width="78" height="118" fill="none" stroke="#e08214" stroke-width="2" opacity="1"/>
		<line x1="377" y1="279" x2="455" y2="279" stroke="#e08214" stroke-width="1"/>
	</g>
	<text x="400" y="271.75" fill="#000" font-family="Verdana" font-size="12">Fiche</text>
	<text x="382" y="296.8" fill="#000" font-family="Verdana" font-size="12">code fiche</text>
	<line x1="382" y1="299" x2="444" y2="299" stroke="#000" stroke-width="1"/>
	<text x="382" y="313.8" fill="#000" font-family="Verdana" font-size="12">titre</text>
	<text x="382" y="330.8" fill="#000" font-family="Verdana" font-size="12">photos</text>
	<text x="382" y="347.8" fill="#000" font-family="Verdana" font-size="12">description</text>
</g>

<!-- Entity Categorie -->
<g class="page_0_NNeaDJHz diagram_page" visibility="visible">
	<g>
		<rect x="623" y="279" width="100" height="25" fill="#fdb863" stroke="#fdb863" stroke-width="0" opacity="1"/>
		<rect x="623" y="304" width="100" height="43" fill="#fee0b6" stroke="#fee0b6" stroke-width="0" opacity="1"/>
		<rect x="623" y="279" width="100" height="68" fill="none" stroke="#e08214" stroke-width="2" opacity="1"/>
		<line x1="623" y1="304" x2="723" y2="304" stroke="#e08214" stroke-width="1"/>
	</g>
	<text x="644" y="296.75" fill="#000" font-family="Verdana" font-size="12">Categorie</text>
	<text x="628" y="321.8" fill="#000" font-family="Verdana" font-size="12">code categorie</text>
	<line x1="628" y1="324" x2="717" y2="324" stroke="#000" stroke-width="1"/>
	<text x="628" y="338.8" fill="#000" font-family="Verdana" font-size="12">label</text>
</g>

<!-- Entity Role -->
<g class="page_0_NNeaDJHz diagram_page" visibility="visible">
	<g>
		<rect x="236" y="431" width="66" height="25" fill="#fdb863" stroke="#fdb863" stroke-width="0" opacity="1"/>
		<rect x="236" y="456" width="66" height="43" fill="#fee0b6" stroke="#fee0b6" stroke-width="0" opacity="1"/>
		<rect x="236" y="431" width="66" height="68" fill="none" stroke="#e08214" stroke-width="2" opacity="1"/>
		<line x1="236" y1="456" x2="302" y2="456" stroke="#e08214" stroke-width="1"/>
	</g>
	<text x="256" y="448.75" fill="#000" font-family="Verdana" font-size="12">Role</text>
	<text x="241" y="473.8" fill="#000" font-family="Verdana" font-size="12">code role</text>
	<line x1="241" y1="476" x2="297" y2="476" stroke="#000" stroke-width="1"/>
	<text x="241" y="490.8" fill="#000" font-family="Verdana" font-size="12">label</text>
</g>

<!-- Entity Action -->
<g class="page_0_NNeaDJHz diagram_page" visibility="visible">
	<g>
		<rect x="376" y="515" width="80" height="25" fill="#fdb863" stroke="#fdb863" stroke-width="0" opacity="1"/>
		<rect x="376" y="540" width="80" height="77" fill="#fee0b6" stroke="#fee0b6" stroke-width="0" opacity="1"/>
		<rect x="376" y="515" width="80" height="102" fill="none" stroke="#e08214" stroke-width="2" opacity="1"/>
		<line x1="376" y1="540" x2="456" y2="540" stroke="#e08214" stroke-width="1"/>
	</g>
	<text x="397" y="532.75" fill="#000" font-family="Verdana" font-size="12">Action</text>
	<text x="381" y="557.8" fill="#000" font-family="Verdana" font-size="12">code action</text>
	<line x1="381" y1="560" x2="451" y2="560" stroke="#000" stroke-width="1"/>
	<text x="381" y="574.8" fill="#000" font-family="Verdana" font-size="12">label</text>
	<text x="381" y="591.8" fill="#000" font-family="Verdana" font-size="12">mois début</text>
	<text x="381" y="608.8" fill="#000" font-family="Verdana" font-size="12">mois limite</text>
</g>
</svg>